# xmcd
#
# Track frame offsets:
#   150
#   12666
#   26558
#   42276
#   56756
#   72838
#   90846
#   109411
#   122112
#   135855
#   150535
#   165260
#   179315
#   195854
#   211023
#   226504
#   243063
#   256450
#
# Disc length: 3610 seconds
#
# Revision: 0
# Processed by: cddbd v1.5.2PL0 Copyright (c) Steve Scherf et al.
# Submitted via: uFREEDB ActiveX Control 1.5
#
DISCID=d60e1812
DTITLE=Joao Carreiro e Capataz - Xique Bacanizado ao vivo
DYEAR=2010
DGENRE=Sertanejo
TTITLE0=Xique bacanizado
TTITLE1=Descartavel
TTITLE2=Bruto rustico e sistematico
TTITLE3=Eu so sei te amar
TTITLE4=Preta
TTITLE5=lagrimas de crocodilo
TTITLE6=Ta bagaguncado mas tem gerencia
TTITLE7=O maior amor do mundo
TTITLE8=Faculdade da pinga
TTITLE9=Prefiro os tubaroes
TTITLE10=Campo Grande_Cuiaba
TTITLE11=Exagerado
TTITLE12=Oi nois traveis
TTITLE13=O remedio e beber
TTITLE14=O que sera que nois nao tem
TTITLE15=E pra caba
TTITLE16=faixa bonus_Roqueirinha 
TTITLE17=Faixa bonus_Mangueira_part Gino e Geno
EXTD=
EXTT0=
EXTT1=
EXTT2=
EXTT3=
EXTT4=
EXTT5=
EXTT6=
EXTT7=
EXTT8=
EXTT9=
EXTT10=
EXTT11=
EXTT12=
EXTT13=
EXTT14=
EXTT15=
EXTT16=
EXTT17=
PLAYORDER=
